<svg viewBox="0 0 40 40" xmlns="http://www.w3.org/2000/svg">
  <rect width="40" height="40" rx="11" fill="#000000" />
  <path d="M8 13.5c0-.6.5-1 1.2-.9L19 14v16l-9.4-1.6c-.9-.1-1.6-.9-1.6-1.8V13.5Z" fill="#ffffff" fill-opacity="0.95" />
  <path d="M32 13.5c0-.6-.5-1-1.2-.9L21 14v16l9.4-1.6c.9-.1 1.6-.9 1.6-1.8V13.5Z" fill="#ffffff" fill-opacity="0.95" />
  <path d="M20 14v16" stroke="#000000" stroke-width="1" stroke-opacity="0.4" />
  <rect x="-2" y="-1.1" width="24" height="2.2" rx="1.1" transform="translate(11 27) rotate(-32)" fill="#ffffff" stroke="#000000" stroke-width="0.6" />
  <path d="M31.2 10.4l2 1.3-2.3 3.4-2-1.3 2.3-3.4Z" fill="#ffffff" />
</svg>
